<?xml version="1.0" encoding="UTF-8"?>
<svg xmlns="http://www.w3.org/2000/svg" version="1.1" viewBox="0 0 192 216.34">
  <defs>
    <style>
      .cls-1 {
        fill: #181818;
      }
    </style>
  </defs>
  <!-- Generator: Adobe Illustrator 28.7.1, SVG Export Plug-In . SVG Version: 1.2.0 Build 142)  -->
  <g>
    <g id="Capa_1">
      <g>
        <path class="cls-1" d="M125.19,69.76c-.03-.12-.06-.24-.09-.36-2.53-10.31-10.9-18.35-21.39-20.39-.12-.03-.24-.05-.37-.07-1.53-.27-3.12-.43-4.73-.43-.06,0-.12,0-.18,0s-.12,0-.18,0c-1.45,0-2.87.12-4.26.36-.13.02-.26.04-.39.06-10.69,1.91-19.26,10.03-21.83,20.48-.03.12-.06.24-.09.36-.46,1.99-.7,4.06-.7,6.18,0,.47.01.94.04,1.39,0,.12.01.24.02.36.75,11.86,9.06,21.69,20.15,24.73.12.04.24.07.37.1,1.07.28,2.16.49,3.28.64,1.04.13,2.1.22,3.17.23.08,0,.17,0,.25,0,.06,0,.12,0,.18,0s.12,0,.18,0c.09,0,.17,0,.25,0h0c1.07-.02,2.12-.1,3.16-.23.01,0,.02,0,.03,0,.23-.03.46-.06.69-.1.13-.02.27-.04.4-.07.22-.04.44-.08.67-.12.53-.1,1.06-.23,1.59-.37.12-.03.25-.06.37-.09,11.04-3.07,19.31-12.88,20.06-24.7.01-.12.02-.24.02-.36.03-.46.04-.92.04-1.39,0-2.13-.24-4.19-.7-6.18ZM125.47,77.7c-.74,11.62-8.85,21.27-19.69,24.33-.12.03-.24.07-.36.09-2.17.58-4.45.9-6.8.91h-.36c-2.31-.01-4.56-.32-6.71-.89-.12-.03-.24-.06-.37-.1-10.89-3.03-19.03-12.69-19.78-24.35-.01-.12-.02-.24-.02-.36-.03-.46-.04-.92-.04-1.39,0-2.13.25-4.19.71-6.18.03-.12.06-.24.09-.36,2.55-10.24,10.95-18.2,21.43-20.11.13-.02.26-.05.39-.06,1.39-.24,2.82-.36,4.28-.37.06,0,.12,0,.18,0s.12,0,.18,0c1.62,0,3.2.16,4.74.44.12.03.24.05.37.07,10.28,2.04,18.48,9.92,21,20.02.04.12.07.24.09.36.47,1.99.72,4.06.72,6.18,0,.47-.01.94-.04,1.39,0,.12-.01.24-.02.36Z"/>
        <g>
          <path class="cls-1" d="M98.44,117.83c-.06,0-.12,0-.18,0v.36c.06,0,.12,0,.18,0s.12,0,.18,0v-.36c-.06,0-.12,0-.18,0ZM138.56,69.76c-.02-.12-.05-.24-.07-.36-3.41-17.21-17.68-30.57-35.34-32.6-.12-.02-.24-.03-.36-.04-1.37-.15-2.76-.23-4.17-.23-.06,0-.12,0-.18,0s-.12,0-.18,0c-1.2,0-2.38.06-3.55.17-.12.01-.25.02-.38.03-17.94,1.8-32.5,15.27-35.95,32.68-.03.12-.05.24-.07.36-.47,2.45-.71,4.99-.71,7.58v.02c0,.11,0,.23,0,.34.14,17.8,11.73,32.92,27.75,38.34.13.05.26.09.39.12l.28-.28c-.13-.04-.26-.08-.39-.13-.26-.09-.52-.18-.77-.27,0,0-.01,0-.02,0-.23-.08-.46-.17-.7-.25-.25-.09-.49-.19-.73-.28-.24-.1-.49-.2-.72-.3-.58-.24-1.16-.5-1.72-.77-.23-.11-.45-.22-.67-.33-.26-.13-.52-.26-.78-.4-.26-.13-.51-.27-.77-.42-.25-.14-.51-.28-.75-.43-.5-.29-.99-.59-1.47-.9-.01,0-.02-.01-.02-.02-.32-.21-.63-.41-.94-.63-.31-.21-.61-.43-.92-.65-.22-.16-.43-.32-.65-.49-.22-.16-.43-.33-.64-.49-.2-.16-.4-.32-.6-.49-.2-.17-.4-.33-.59-.5-.22-.19-.43-.38-.65-.57-.2-.18-.4-.36-.6-.55-.17-.16-.34-.32-.51-.48-.24-.23-.47-.45-.7-.69-.12-.12-.24-.24-.36-.37-.21-.22-.41-.43-.61-.65-.25-.27-.5-.54-.73-.81-1.47-1.67-2.79-3.46-3.97-5.35-.18-.28-.35-.57-.52-.87-.13-.22-.26-.44-.38-.66-.83-1.46-1.56-2.98-2.2-4.55-.11-.27-.22-.55-.33-.82-.11-.3-.23-.6-.34-.9-.24-.66-.45-1.33-.66-2.01-.05-.15-.09-.31-.13-.46-.05-.16-.09-.32-.13-.49-.07-.25-.13-.5-.2-.75-.11-.44-.22-.89-.31-1.34-.15-.7-.28-1.42-.39-2.13-.03-.2-.06-.39-.09-.59-.19-1.28-.31-2.57-.37-3.88-.01-.18-.02-.36-.02-.54,0-.09,0-.19,0-.29-.01-.23-.02-.45-.02-.69v-.36c0-2.59.24-5.12.72-7.58.02-.12.04-.24.07-.36,3.44-17.2,17.83-30.5,35.56-32.3.12-.02.24-.03.37-.03,1.18-.11,2.37-.17,3.58-.18.06,0,.12,0,.18,0s.12,0,.18,0c1.42,0,2.81.08,4.18.23.12.01.24.03.37.04,17.46,2.04,31.55,15.23,34.95,32.24.03.12.05.24.07.36.47,2.45.72,4.99.72,7.58v.02c0,.11,0,.23,0,.34h.37v-.36c0-2.59-.24-5.12-.71-7.58ZM111.23,115.75c-.13.05-.26.09-.39.13l.28.28c.13-.04.26-.08.39-.12l-.28-.29Z"/>
          <path class="cls-1" d="M125.53,75.94c0,.47-.01.93-.04,1.39h-19.79c0,.12,0,.24,0,.36-.04,3.96-.16,13.07-.28,24.42-2.17.58-4.45.9-6.8.91-.03,0-.07,0-.11,0l-.08-.08-.08.08s-.07,0-.11,0c-2.31-.01-4.56-.32-6.71-.88-.2-11.55-.33-20.63-.38-24.45,0-.13,0-.25,0-.36h-19.78c-.03-.46-.04-.92-.04-1.39,0-2.13.25-4.2.71-6.19h20.53c.01-.11.03-.22.04-.36.26-2.66.81-10.97,1.35-20.17,1.39-.24,2.82-.36,4.28-.37.06,0,.12,0,.18,0s.12,0,.18,0c1.62,0,3.2.16,4.74.45.42,9.06.81,17.32.94,20.09,0,.13.01.25.02.36h20.49c.47,1.99.71,4.06.71,6.19Z"/>
        </g>
        <path class="cls-1" d="M98.44,81.42"/>
        <g>
          <path class="cls-1" d="M91.56,102.52c-.12-.03-.25-.06-.37-.1,0-.12,0-.25,0-.38-.2-11.51-.33-20.54-.37-24.35,0-.12,0-.25-.01-.36h.36c0,.11.01.24.01.36.05,3.82.18,12.89.38,24.45,0,.12,0,.25,0,.38Z"/>
          <path class="cls-1" d="M91.7,110.21l-.36.36c0-.17,0-.34,0-.5l.36-.36c0,.17,0,.34.01.5Z"/>
          <path class="cls-1" d="M93.43,175.78l-.38-.38c0-.18-.02-.36-.02-.53-.02-.33-.03-.65-.04-.98,0-.18-.02-.35-.02-.53-.55-13.94-1.01-31.83-1.35-48.49-.02-.86-.04-1.72-.05-2.57,0-.17,0-.34-.01-.5,0-.31-.01-.61-.02-.92-.01-.17-.01-.34-.01-.5-.03-.94-.04-1.86-.06-2.78.12.02.24.04.37.06.02.79.03,1.58.05,2.37,0,.17.01.33.01.5.01.29.02.59.02.89v.03c0,.17,0,.34.01.5.02.87.04,1.74.05,2.61.01.43.02.87.03,1.31.06,3.08.13,6.2.2,9.33.01.39.02.78.03,1.17.07,3.07.15,6.14.23,9.19.06,2.24.12,4.47.18,6.67.01.55.03,1.1.05,1.64.14,4.94.29,9.72.45,14.2.03.83.06,1.64.09,2.44.01.25.02.51.03.75.04.84.07,1.67.1,2.48.01.18.02.36.02.53,0,.13.01.27.02.4,0,.02,0,.03,0,.04,0,.18.01.36.02.54,0,.18.02.36.02.53Z"/>
          <path class="cls-1" d="M105.16,185.76c0,.18-.01.36-.02.53-.7,18-5.48,27.09-5.53,27.19l-.09.18-.17-.11c-.1-.07-2.58-1.87-4.91-17.3-.25-1.68-.5-4.43-.73-7.99-.01-.18-.02-.37-.04-.55l.39.39c.01.19.02.36.04.54h0c.1,1.52.2,2.88.3,4.06.02.18.03.35.05.53.03.34.06.66.1.97.03.31.06.6.1.87.02.19.04.36.07.53.02.21.05.4.08.59.07.49.15.96.22,1.42.1.6.2,1.18.29,1.74.03.19.07.37.1.55.02.07.03.14.04.21.12.68.24,1.32.37,1.94h0c.07.35.13.67.2.99s.13.63.2.92c.04.15.07.29.1.44.07.29.13.57.2.84.1.41.2.8.29,1.16h0c.09.34.18.66.26.96.01.03.02.06.03.08.06.22.12.43.18.64.18.6.36,1.14.52,1.62.03.08.06.17.09.24.72,2,1.28,2.84,1.54,3.14.21-.43.69-1.48,1.29-3.14.11-.3.22-.64.34-.98.05-.16.11-.33.16-.5.04-.13.09-.27.13-.41.09-.28.18-.57.27-.87.13-.44.26-.91.4-1.41.66-2.42,1.32-5.42,1.84-9,.03-.19.05-.38.08-.57.05-.37.1-.75.15-1.13.18-1.39.34-2.86.46-4.41,0-.02,0-.04,0-.06.1-1.26.19-2.57.24-3.94.02-.18.02-.35.03-.53l.38-.38Z"/>
          <path class="cls-1" d="M105.57,122.05c0,.17,0,.34,0,.51,0,.71-.02,1.42-.02,2.13-.17,17.28-.32,35.36-.34,47.36v1.96l-.36.37v-1.96c.01-6.6.06-15.1.13-24.32.01-1.2.02-2.42.03-3.65,0-.43.01-.86.01-1.3.01-1.35.03-2.71.04-4.07.01-1.37.03-2.74.04-4.12.02-1.96.04-3.93.05-5.9.01-.96.02-1.91.03-2.85,0-.63.01-1.26.02-1.89,0-.5.01-1,.02-1.5v-.03c0-.15,0-.29,0-.44v-.16c0-.17,0-.34,0-.51l.36.36Z"/>
          <path class="cls-1" d="M105.69,110.22c0,.17,0,.34,0,.51l-.36-.36c0-.17,0-.34,0-.51l.36.36Z"/>
          <path class="cls-1" d="M106.07,77.34c0,.12,0,.24-.01.36-.04,3.95-.15,13.02-.28,24.33v.38c-.12.04-.24.07-.37.09,0-.12,0-.25,0-.38.12-11.35.24-20.46.28-24.42,0-.12.01-.24.01-.36h.36Z"/>
        </g>
        <path class="cls-1" d="M105.71,77.34c0,.12,0,.24-.01.36h20.14c.01-.12.02-.24.02-.36h-20.15ZM147.72,77.34h-8.81v.02c0,.11,0,.23,0,.34h9c-.07-.12-.12-.24-.19-.36ZM125.1,69.4h-20.79c0,.13.01.25.02.36h20.87c-.03-.12-.06-.24-.09-.36ZM138.12,69.4c.03.12.05.24.07.36h9.22c.05-.12.09-.24.14-.36h-9.43ZM47.14,77.34c-.06.12-.11.24-.17.36h10.99v-.36h-10.82ZM91.16,77.34h-20.14c0,.12.01.24.02.36h20.13c0-.12,0-.25-.01-.36ZM47.09,69.4c.06.12.1.24.15.36h11.44c.02-.12.04-.24.07-.36h-11.66ZM71.77,69.4c-.03.12-.06.24-.09.36h20.9c.01-.1.02-.23.04-.36h-20.85Z"/>
        <g>
          <path class="cls-1" d="M94,48.85c0,.12-.01.25-.02.37-.55,9.2-1.1,17.5-1.35,20.17-.02.13-.03.26-.04.36h-.37c.01-.1.02-.22.03-.36.21-2.48.76-10.82,1.33-20.11.01-.12.02-.25.02-.37.13-.02.26-.04.39-.06Z"/>
          <path class="cls-1" d="M98.26,14.75v.37c-.63.05-1.25.2-1.73.53-.56.38-.88.99-.95,1.79v.05c-.01.1-.01.21-.01.32v.07c.04,1.53-.35,9.52-.86,18.82-.01.12-.02.25-.03.37-.12,0-.24.02-.37.03,0-.12.01-.25.02-.37.52-9.15.92-17.07.88-18.84,0-.07,0-.13,0-.2,0-.08,0-.15.01-.23,0-.05.01-.09.02-.14.09-.87.46-1.53,1.1-1.97.55-.37,1.23-.54,1.93-.59Z"/>
          <path class="cls-1" d="M103.17,37.16c-.12-.02-.24-.03-.37-.04,0-.12-.01-.25-.02-.37-.4-8.85-.72-16.29-.72-17.5,0-.57-.02-1.05-.05-1.47-.01-.12-.02-.24-.04-.36.12-.04.24-.08.36-.12.01.12.02.24.04.36.04.45.06.97.06,1.58,0,1.21.32,8.67.72,17.54.01.12.02.24.02.37Z"/>
          <path class="cls-1" d="M104.68,69.76h-.36c0-.11-.01-.23-.02-.36-.13-2.77-.53-11.04-.95-20.09,0-.12-.01-.24-.02-.37.12.02.24.05.37.07,0,.12.01.25.02.37.42,9.04.81,17.28.94,20.02,0,.13.01.26.02.36Z"/>
        </g>
        <path class="cls-1" d="M98.44,77.37"/>
        <g>
          <path class="cls-1" d="M46.97,77.7c-.95,1.89-2.51,3.13-4.27,3.13-2.89,0-5.23-3.32-5.23-7.41s2.35-7.41,5.23-7.41c1.84,0,3.46,1.35,4.39,3.38.05.12.11.24.16.36h.39c-.05-.12-.1-.24-.15-.36-.98-2.24-2.76-3.74-4.78-3.74-3.09,0-5.6,3.49-5.6,7.77s2.51,7.77,5.6,7.77c1.95,0,3.67-1.39,4.67-3.49.06-.12.11-.24.16-.36h-.39c-.05.12-.11.24-.17.36Z"/>
          <path class="cls-1" d="M58.31,69.76c-.47,2.46-.71,4.99-.71,7.58h-10.46c-.05.12-.11.24-.17.36-.95,1.89-2.51,3.13-4.27,3.13-2.89,0-5.23-3.32-5.23-7.41s2.35-7.41,5.23-7.41c1.84,0,3.46,1.35,4.39,3.38.05.12.11.24.16.36h11.07Z"/>
        </g>
        <path class="cls-1" d="M105.58,122.07v-.02s-.37-.36-.37-.36c0,.17,0,.34,0,.51l.07.07.29.28,27.28,25.78-21.25,19.35-6.39,5.81-.76.76s-.03.03-.04.05l-4.91,4.9-.95.95-.11.11-.11-.11-4.5-4.5-.41-.41-.38-.38-27.02-27.02,3.79-3.79,21.73-21.73h0s.63-.63.63-.63c-.09-.1-.17-.19-.24-.27l-26.43,26.43,32.93,32.93,34.92-32.44-27.77-26.28Z"/>
        <g>
          <path class="cls-1" d="M101.18,105.7l-2.31-2.31-.25-.25v.51l.88.88,5.83,5.83c0-.17,0-.34,0-.51l-4.15-4.15ZM142.88,146.91l-31.58-31.22-10.28-10.17h0s-2.14-2.12-2.14-2.12h0l-.25-.25-.1-.11h0l-.07-.07-.08.07-.1.11-.25.25-6.67,6.67-5.02,5.02-.67.67-.28.29-30.87,30.87c-.58.59-.58,1.54,0,2.12l39.22,39.23.39.39,3.28,3.28c.59.59,1.54.59,2.12,0l2.46-2.46,2.8-2.81.38-.38,37.74-37.25c.59-.58.59-1.54,0-2.13ZM142.37,149.04l-37.21,36.71-5.66,5.66c-.58.58-1.53.58-2.12,0l-3.32-3.31-.39-.39-38.67-38.68c-.58-.58-.58-1.53,0-2.12l30.75-30.74.28-.28,5.31-5.31.36-.36,5.68-5.68c.58-.59,1.53-.59,2.12,0l11.35,11.35h0l.28.28,31.24,30.74c.59.59.6,1.55,0,2.14ZM101.18,105.7l-2.31-2.31-.25-.25v.51l.88.88,5.83,5.83c0-.17,0-.34,0-.51l-4.15-4.15Z"/>
          <path class="cls-1" d="M139.27,77.7c-.14,17.47-11.3,32.35-26.86,38.03-.37.13-.76.11-1.11-.05l-10.28-10.17h0s-2.14-2.12-2.14-2.12c1.07-.02,2.12-.1,3.16-.23.01,0,.02,0,.03,0,.23-.03.46-.06.69-.1.13-.02.27-.04.4-.07.22-.04.44-.08.67-.12.53-.1,1.06-.23,1.59-.37.12-.03.25-.06.37-.09,11.04-3.07,19.31-12.88,20.06-24.7.01-.12.02-.24.02-.36.03-.46.04-.92.04-1.39,0-2.13-.24-4.19-.7-6.18-.03-.12-.06-.24-.09-.36-2.53-10.31-10.9-18.35-21.39-20.39-.12-.03-.24-.05-.37-.07-1.53-.27-3.12-.43-4.73-.43-.06,0-.12,0-.18,0s-.12,0-.18,0c-1.45,0-2.87.12-4.26.36-.13.02-.26.04-.39.06-10.69,1.91-19.26,10.03-21.83,20.48-.03.12-.06.24-.09.36-.46,1.99-.7,4.06-.7,6.18,0,.47.01.94.04,1.39,0,.12.01.24.02.36.75,11.86,9.06,21.69,20.15,24.73.12.04.24.07.37.1,1.07.28,2.16.49,3.28.64,1.04.13,2.1.22,3.17.23l-6.67,6.67-5.02,5.02c-.38.38-.92.53-1.44.4,0,0-.01,0-.02,0-.23-.08-.46-.17-.7-.25-.25-.09-.49-.19-.73-.28-.24-.1-.49-.2-.72-.3-.58-.24-1.16-.5-1.72-.77-.23-.11-.45-.22-.67-.33-.26-.13-.52-.26-.78-.4-.26-.13-.51-.27-.77-.42-.25-.14-.51-.28-.75-.43-.5-.29-.99-.59-1.47-.9-.01,0-.02-.01-.02-.02-.32-.21-.63-.41-.94-.63-.31-.21-.61-.43-.92-.65-.22-.16-.43-.32-.65-.49-.22-.16-.43-.33-.64-.49-.2-.16-.4-.32-.6-.49-.2-.17-.4-.33-.59-.5-.22-.19-.43-.38-.65-.57-.2-.18-.4-.36-.6-.55-.17-.16-.34-.32-.51-.48-.24-.23-.47-.45-.7-.69-.12-.12-.24-.24-.36-.37-.21-.22-.41-.43-.61-.65-.25-.27-.5-.54-.73-.81-1.47-1.67-2.79-3.46-3.97-5.35-.18-.28-.35-.57-.52-.87-.13-.22-.26-.44-.38-.66-.83-1.46-1.56-2.98-2.2-4.55-.11-.27-.22-.55-.33-.82-.11-.3-.23-.6-.34-.9-.24-.66-.45-1.33-.66-2.01-.05-.15-.09-.31-.13-.46-.05-.16-.09-.32-.13-.49-.07-.25-.13-.5-.2-.75-.11-.44-.22-.89-.31-1.34-.15-.7-.28-1.42-.39-2.13-.03-.2-.06-.39-.09-.59-.19-1.28-.31-2.57-.37-3.88-.01-.18-.02-.36-.02-.54,0-.09,0-.19,0-.29-.01-.23-.02-.45-.02-.69v-.36c0-2.59.24-5.12.72-7.58.02-.12.04-.24.07-.36,3.44-17.2,17.83-30.5,35.56-32.3.12-.02.24-.03.37-.03,1.18-.11,2.37-.17,3.58-.18.06,0,.12,0,.18,0s.12,0,.18,0c1.42,0,2.81.08,4.18.23.12.01.24.03.37.04,17.46,2.04,31.55,15.23,34.95,32.24.03.12.05.24.07.36.47,2.45.72,4.99.72,7.58v.02c0,.11,0,.23,0,.34h.37Z"/>
          <path class="cls-1" d="M84.86,115.48s-.07-.02-.1-.03c-.2-.07-.4-.14-.59-.22.23.09.46.17.7.25Z"/>
          <path class="cls-1" d="M111.3,115.68c-.17-.07-.32-.18-.45-.31l-5.15-5.15-.36-.36-4.15-4.15c-.06-.06-.11-.12-.16-.19l10.28,10.17Z"/>
          <path class="cls-1" d="M92.49,122.05c-.1-.11-.21-.22-.3-.33,0-.01-.01-.02-.02-.03-.09-.1-.17-.19-.24-.27-.01,0-.02-.01-.02-.02v.03c0,.17,0,.34.01.5.02.87.04,1.74.05,2.61h0l.4-.36c.64-.56.68-1.53.11-2.14ZM105.58,122.07v-.02c-.12.06-.22.14-.3.22-.03.03-.05.06-.07.08-.03.02-.04.04-.06.07-.21.27-.32.6-.32.93s.12.69.36.98c.03.04.06.07.09.1l.27.26,23.86,23.11c.6.58.61,1.55.02,2.14l-17.83,17.75-12.09,12.04c-.26.26-.6.41-.95.43-.08,0-.15,0-.23,0-.35-.03-.69-.18-.95-.43l1.06,1.06,34.92-32.44-27.77-26.28ZM92.19,121.72s-.01-.02-.02-.03c-.09-.1-.17-.19-.24-.27-.01,0-.02-.01-.02-.02-.22-.25-.37-.45-.37-.53,0,.3.01.61.02.92l-26.05,26.05,1.13,1.13c-.26-.26-.41-.6-.43-.95-.01-.13,0-.26.02-.39.06-.32.22-.62.48-.85l3.1-2.73,21.81-19.19.36-.32h0l.4-.36c.64-.56.68-1.53.11-2.14-.1-.11-.21-.22-.3-.33ZM92.49,122.05c-.1-.11-.21-.22-.3-.33,0-.01-.01-.02-.02-.03-.09-.1-.17-.19-.24-.27-.01,0-.02-.01-.02-.02v.03c0,.17,0,.34.01.5.02.87.04,1.74.05,2.61h0l.4-.36c.64-.56.68-1.53.11-2.14ZM105.14,122.42c-.21.27-.32.6-.32.93s.12.69.36.98c0-.5.01-1,.02-1.5v-.03c0-.13-.02-.26-.06-.38Z"/>
          <path class="cls-1" d="M142.37,146.91l-31.24-30.74-.28-.28h0l-11.35-11.35c-.58-.59-1.53-.59-2.12,0l-5.68,5.68-.36.36-5.31,5.31-.28.28-30.75,30.74c-.58.59-.58,1.54,0,2.12l38.67,38.68.39.39,3.32,3.31c.58.58,1.53.58,2.12,0l5.66-5.66,37.21-36.71c.6-.59.59-1.55,0-2.14ZM98.44,180.79l-32.93-32.93,26.05-26.05c0-.31-.01-.61-.02-.92-.01-.17-.01-.34-.01-.5-.03-.94-.04-1.86-.06-2.78.12.02.24.04.37.06.02.79.03,1.58.05,2.37,0,.17.01.33.01.5.01.29.02.59.02.89,0,0,0,.01.02.02.07.08.15.18.24.27l6.27-6.27,6.32,6.32s.03.04.05.05l.4.4c0-.17,0-.34,0-.51l.36.36v.02s27.78,26.28,27.78,26.28l-34.92,32.44Z"/>
          <path class="cls-1" d="M105.14,122.42c-.21.27-.32.6-.32.93s.12.69.36.98c0-.5.01-1,.02-1.5v-.03c0-.13-.02-.26-.06-.38ZM105.09,134.97c-.03,2.75-.05,5.49-.07,8.19.03-2.7.05-5.43.07-8.19ZM92.19,121.72c-.17.25-.25.55-.25.85.02.66.03,1.31.04,1.97l.4-.36c.64-.56.68-1.53.11-2.14-.1-.11-.21-.22-.3-.33Z"/>
          <path class="cls-1" d="M104.82,123.35c0-.33.11-.66.32-.93-.06-.23-.17-.44-.34-.62-.02-.02-.03-.04-.05-.05l-6.32-6.32-6.06,6.06c-.07.07-.14.15-.19.24.1.1.2.21.3.33.57.61.53,1.59-.11,2.14l-.4.36c.01.44.02.87.03,1.31.06,3.08.13,6.2.2,9.33.01.39.02.78.03,1.17.07,3.07.15,6.14.23,9.19.06,2.24.12,4.47.18,6.67.01.55.03,1.1.05,1.64.14,4.94.29,9.72.45,14.2.03.83.06,1.64.09,2.44.01.25.02.51.03.75.04.84.07,1.67.1,2.48.01.18.02.36.02.53,0,.13.01.27.02.4,0,.02,0,.03,0,.04.02.36.18.7.43.96l4.5,4.5c.08,0,.15,0,.23,0l.95-.95,4.91-4.9s.03-.03.04-.05c.25-.28.4-.64.4-1.01v-.83c.01-6.6.06-15.1.13-24.32.01-1.2.02-2.42.03-3.65,0-.43.01-.86.01-1.3.01-1.35.02-2.71.04-4.07.01-1.37.03-2.74.04-4.12.02-1.96.04-3.93.05-5.9.01-.96.02-1.91.03-2.85,0-.63.01-1.26.02-1.89-.24-.28-.36-.63-.36-.98ZM98.62,118.19c-.06,0-.12,0-.18,0s-.12,0-.18,0v-.36c.06,0,.12,0,.18,0s.12,0,.18,0v.36Z"/>
          <path class="cls-1" d="M104.76,186.66c-.06,1.36-.14,2.68-.24,3.94,0,.02,0,.04,0,.06-.12,1.55-.28,3.02-.46,4.41-.05.38-.1.76-.15,1.13-.03.19-.05.38-.08.57-.53,3.58-1.19,6.58-1.84,9-.14.49-.27.96-.4,1.41-.09.3-.18.59-.27.87-.04.14-.09.27-.13.41-.05.17-.11.34-.16.5-.12.35-.23.68-.34.98-.59,1.66-1.07,2.71-1.29,3.14-.26-.3-.82-1.14-1.54-3.14-.03-.08-.06-.16-.09-.24-.16-.48-.34-1.02-.52-1.62-.06-.21-.12-.42-.18-.64-.01-.03-.02-.06-.03-.08-.08-.3-.17-.63-.26-.96h0c-.09-.37-.19-.76-.29-1.17-.06-.27-.13-.55-.2-.84-.03-.14-.06-.29-.1-.44-.06-.3-.13-.61-.2-.92s-.13-.64-.2-.98h0c-.12-.62-.24-1.27-.37-1.95-.01-.07-.02-.14-.04-.21-.03-.18-.07-.36-.1-.55-.09-.56-.19-1.14-.29-1.74-.07-.46-.15-.93-.22-1.42-.03-.19-.05-.38-.08-.59-.03-.17-.05-.34-.07-.53-.04-.27-.07-.56-.1-.87-.03-.3-.06-.63-.1-.97-.02-.18-.03-.35-.05-.53-.1-1.18-.21-2.54-.3-4.06l3.28,3.28c.59.59,1.54.59,2.12,0l2.46-2.46,2.8-2.81Z"/>
        </g>
        <g>
          <path class="cls-1" d="M98.77,10.26h-.15c-.12,0-.24,0-.36.01-3.61.15-6.47,1.88-6.47,3.98,0,1.46,1.37,2.74,3.42,3.43.12.04.24.08.37.11.81.24,1.72.4,2.68.44.12,0,.24,0,.36.01v-.36c-.12,0-.24,0-.36-.01-.96-.04-1.87-.19-2.67-.44-.12-.04-.24-.08-.35-.12-1.85-.65-3.09-1.78-3.09-3.07,0-1.9,2.7-3.47,6.11-3.62.12,0,.24,0,.36-.01h.15c3.65,0,6.63,1.63,6.63,3.63,0,1.28-1.22,2.41-3.06,3.06-.11.04-.23.08-.35.12.01.11.02.23.03.36.12-.03.24-.07.36-.11,2.03-.7,3.38-1.97,3.38-3.42,0-2.2-3.14-3.99-6.99-3.99Z"/>
          <path class="cls-1" d="M102.34,17.31c-.11.04-.23.08-.35.12.01.11.02.23.03.36.03.41.05.9.05,1.47,0,1.21.32,8.65.71,17.5-1.37-.15-2.76-.22-4.17-.23-.06,0-.12,0-.18,0s-.12,0-.18,0c-1.2,0-2.38.06-3.55.17.51-9.3.9-17.29.87-18.82v-.07c.81.24,1.72.4,2.68.44.12,0,.24,0,.36.01v-.36c-.12,0-.24,0-.36-.01-.96-.04-1.87-.19-2.67-.44.07-.81.38-1.41.95-1.79.48-.33,1.09-.48,1.72-.53v-.37c-.7.05-1.38.22-1.93.59-.64.44-1.01,1.1-1.1,1.98-1.85-.65-3.09-1.78-3.09-3.07,0-1.9,2.7-3.47,6.11-3.62.12,0,.24,0,.36-.01h.15c3.65,0,6.63,1.63,6.63,3.63,0,1.28-1.22,2.41-3.06,3.06Z"/>
        </g>
        <g>
          <path class="cls-1" d="M152.05,65.42c-2.1,0-3.92,1.61-4.88,3.98-.05.12-.1.24-.14.36h.38c.05-.12.09-.24.15-.36.91-2.17,2.59-3.62,4.49-3.62,2.89,0,5.23,3.32,5.23,7.41s-2.35,7.41-5.23,7.41c-1.68,0-3.18-1.13-4.15-2.89-.07-.12-.13-.24-.18-.36h-.4c.05.12.11.25.18.36,1.01,1.97,2.67,3.25,4.55,3.25,3.09,0,5.6-3.49,5.6-7.77s-2.51-7.77-5.6-7.77Z"/>
          <path class="cls-1" d="M157.28,73.18c0,4.08-2.35,7.41-5.23,7.41-1.68,0-3.18-1.13-4.15-2.89-.07-.12-.13-.24-.18-.36h-8.45c0-2.59-.24-5.12-.71-7.58h8.85c.05-.12.09-.24.15-.36.91-2.17,2.59-3.62,4.49-3.62,2.89,0,5.23,3.32,5.23,7.41Z"/>
        </g>
        <path class="cls-1" d="M40.07,67.92c-.45.14-.83,2.4-3.71,3.8s-6.63-.95-5.71.86,6.85,5.18,9.08,5.33.33-9.99.33-9.99Z"/>
        <path class="cls-1" d="M154.88,78.71c.45-.14.83-2.4,3.71-3.8s6.63.95,5.71-.86-6.85-5.18-9.08-5.33-.33,9.99-.33,9.99Z"/>
        <path class="cls-1" d="M104.94,12.56c-.14-.45-2.4-.83-3.8-3.71s.95-6.63-.86-5.71-5.18,6.85-5.33,9.08,9.99.33,9.99.33Z"/>
      </g>
    </g>
  </g>
</svg>